<svg t="1757601372025" class="icon" viewBox="0 0 1024 1024" version="1.1" xmlns="http://www.w3.org/2000/svg" p-id="24194" width="200" height="200"><path d="M512 512m-512 0a512 512 0 1 0 1024 0 512 512 0 1 0-1024 0Z" fill="#13C5FF" p-id="24195"></path><path d="M512 33.032258C776.258065 33.032258 990.967742 247.741935 990.967742 512S776.258065 990.967742 512 990.967742 33.032258 776.258065 33.032258 512 247.741935 33.032258 512 33.032258m0-33.032258C227.922581 0 0 227.922581 0 512S227.922581 1024 512 1024 1024 796.077419 1024 512 796.077419 0 512 0z" fill="#2BCAFF" p-id="24196"></path><path d="M512 512m-280.774194 0a280.774194 280.774194 0 1 0 561.548388 0 280.774194 280.774194 0 1 0-561.548388 0Z" fill="#009BCF" p-id="24197"></path><path d="M280.774194 313.806452m-82.580646 0a82.580645 82.580645 0 1 0 165.161291 0 82.580645 82.580645 0 1 0-165.161291 0Z" fill="#FFFFFF" p-id="24198"></path><path d="M644.129032 640.825806c0 9.909677-3.303226 16.516129-6.606451 19.819355s-9.909677 6.606452-16.516129 6.606452c-3.303226 0-9.909677 0-13.212904-3.303226-3.303226-3.303226-6.606452-6.606452-9.909677-13.212903-3.303226-16.516129-3.303226-29.729032-6.606452-46.245161-3.303226-13.212903-6.606452-29.729032-13.212903-46.245162h-128.825806l-9.909678 39.63871c-3.303226 13.212903-6.606452 26.425806-9.909677 42.941935-3.303226 6.606452-6.606452 13.212903-9.909678 16.516129-3.303226 3.303226-9.909677 6.606452-13.212903 6.606452-6.606452 0-13.212903-3.303226-19.819355-9.909677-6.606452-6.606452-6.606452-13.212903-3.303225-23.122581 9.909677-49.548387 23.122581-95.793548 39.638709-142.03871s36.335484-92.490323 59.458065-138.735484c3.303226-6.606452 9.909677-13.212903 16.516129-13.212903 9.909677-3.303226 16.516129 0 23.12258 6.606452 9.909677 6.606452 16.516129 16.516129 23.122581 26.425806l19.819355 29.729033c6.606452 9.909677 13.212903 23.122581 16.516129 33.032258 6.606452 9.909677 9.909677 19.819355 16.516129 29.729032 3.303226 6.606452 6.606452 13.212903 9.909677 23.122581 3.303226 6.606452 6.606452 16.516129 9.909678 23.12258h26.425806c6.606452 3.303226 13.212903 6.606452 16.516129 9.909678s6.606452 9.909677 6.606452 13.212903-3.303226 9.909677-6.606452 13.212903-9.909677 6.606452-16.516129 9.909677H627.612903c6.606452 33.032258 13.212903 59.458065 16.516129 85.883871zM528.516129 449.23871c-3.303226-6.606452-6.606452-16.516129-13.212903-23.122581-3.303226-6.606452-9.909677-13.212903-13.212903-19.819355-6.606452 16.516129-16.516129 36.335484-23.122581 52.851613s-13.212903 36.335484-19.819355 56.154839h99.096774c-3.303226-9.909677-9.909677-19.819355-13.212903-29.729032-3.303226-9.909677-9.909677-19.819355-13.212903-29.729033l-3.303226-6.606451z" fill="#FFFFFF" p-id="24199"></path></svg>