<svg t="1757584600922" class="icon" viewBox="0 0 1024 1024" version="1.1" xmlns="http://www.w3.org/2000/svg" p-id="1772" width="200" height="200"><path d="M512 0c282.766222 0 512 229.233778 512 512S794.766222 1024 512 1024 0 794.766222 0 512 229.233778 0 512 0z" fill="#FFFFFF" p-id="1773"></path><path d="M512 28.444444l7.992889 0.071112C783.374222 32.782222 995.555556 247.608889 995.555556 512c0 267.064889-216.490667 483.555556-483.555556 483.555556S28.444444 779.064889 28.444444 512 244.935111 28.444444 512 28.444444z" fill="#105DF7" p-id="1774"></path><path d="M548.408889 230.869333L981.333333 691.584C867.242667 913.194667 709.319111 1024 507.534222 1024 305.777778 1024 150.798222 915.057778 42.666667 697.201778l427.847111-466.332445c21.518222-23.381333 56.391111-23.381333 77.895111 0z m-29.013333 29.639111c-4.906667-5.546667-12.615111-5.973333-17.92-1.308444l-1.28 1.265778L99.555556 714.154667l-19.470223 22.798222c97.180444 182.357333 245.688889 269.610667 415.246223 271.872H512c172.828444 0 331.050667-83.399111 434.645333-271.872L924.444444 708.380444 519.395556 260.508444z" fill="#FFFFFF" p-id="1775"></path><path d="M557.141333 250.410667L810.24 509.383111l-97.720889 88.775111-93.610667-89.742222-99.953777 89.031111-107.150223-89.784889-93.596444 89.045334-91.079111-89.472L478.293333 250.453333a54.954667 54.954667 0 0 1 78.833778-0.056889z" fill="#FFFFFF" p-id="1776"></path></svg>